<?xml version="1.0" encoding="UTF-8"?>
<svg version="1.1" xmlns="http://www.w3.org/2000/svg" width="736" height="705">
<path d="M0 0 C242.88 0 485.76 0 736 0 C736 232.65 736 465.3 736 705 C493.12 705 250.24 705 0 705 C0 472.35 0 239.7 0 0 Z " fill="#DCC4AF" transform="translate(0,0)"/>
<path d="M0 0 C0.33 0 0.66 0 1 0 C1 1.98 1 3.96 1 6 C1.77452011 5.99777939 2.54904022 5.99555878 3.34703064 5.99327087 C10.63121021 5.97326866 17.91537655 5.95802623 25.19957638 5.94818783 C28.94483037 5.94295986 32.69006176 5.93586378 36.43530273 5.92456055 C40.04681687 5.91372859 43.65830921 5.90772251 47.26983833 5.90512276 C48.65060329 5.90326906 50.031367 5.89964951 51.41212273 5.89426994 C53.33975952 5.88705553 55.26741807 5.88659191 57.19506836 5.88647461 C58.29427109 5.884254 59.39347382 5.88203339 60.52598572 5.87974548 C63 6 63 6 64 7 C64.19548816 8.78914162 64.38518109 10.57911756 64.54467773 12.37182617 C65.61414757 24.10801774 68.54404747 34.47987876 74 45 C78 53 78 53 78.8828125 55.02734375 C80.21605465 57.38149511 81.7325358 58.71546463 83.8125 60.4375 C87.04142444 63.1683145 90.05459289 65.96796327 93 69 C93.66 69.66 94.32 70.32 95 71 C95.12375 71.804375 95.2475 72.60875 95.375 73.4375 C95.79711018 76.0370195 95.79711018 76.0370195 97.5 77.6875 C104.16907865 81.18876629 111.43645176 81.40564873 118.8125 80.75 C121.12654895 80.22568595 121.12654895 80.22568595 122 78.25 C122.33 77.5075 122.66 76.765 123 76 C123.825 75.2575 124.65 74.515 125.5 73.75 C131.9327819 66.67393991 130.19582931 55.96463075 130 47 C129.34 47 128.68 47 128 47 C127.505 45.9275 127.01 44.855 126.5 43.75 C123.90187655 39.30891701 120.91869077 37.39657055 116 36 C111.66875112 35.41456201 107.36707061 35.1331424 103 35 C102.34 33.35 101.68 31.7 101 30 C100.34 30 99.68 30 99 30 C98.17934931 28.12855305 97.3688416 26.25265664 96.5625 24.375 C96.11003906 23.33085937 95.65757812 22.28671875 95.19140625 21.2109375 C92.98121778 15.2542984 92.85124789 11.96639768 95 6 C102.60617289 5.84591644 110.21244152 5.69773758 117.81887341 5.5570364 C121.35107394 5.49151465 124.88321185 5.42398153 128.4152832 5.35180664 C132.47857881 5.26886572 136.54199424 5.1947546 140.60546875 5.12109375 C142.50258858 5.08054115 142.50258858 5.08054115 144.43803406 5.03916931 C145.61888077 5.01907303 146.79972748 4.99897675 148.01635742 4.97827148 C149.05338303 4.95828598 150.09040863 4.93830048 151.15885925 4.91770935 C153.89300722 4.99690107 156.34198159 5.3765825 159 6 C159.12117188 7.05058594 159.24234375 8.10117188 159.3671875 9.18359375 C160.5844449 19.51426509 162.0635638 28.91922835 165.8125 38.6875 C166.0487207 39.31793213 166.28494141 39.94836426 166.52832031 40.59790039 C168.47181335 45.45215194 171.14605596 50.57302798 176 53 C177.98128683 55.93230451 179.35389319 58.51102321 180 62 C180.66 62 181.32 62 182 62 C184.93041129 65.22345242 187.11207662 68.07892836 189 72 C189.66 72.33 190.32 72.66 191 73 C191.30035156 73.63550781 191.60070312 74.27101563 191.91015625 74.92578125 C193.83323433 78.58583309 197.20077071 79.72953773 201 81 C204.6638702 81.58256018 208.29433444 81.8637623 212 82 C212 81.34 212 80.68 212 80 C212.94875 79.566875 213.8975 79.13375 214.875 78.6875 C218.20041937 77.20697799 218.20041937 77.20697799 220 74 C220.99 74 221.98 74 223 74 C225.00184972 63.44479239 226.41171846 54.33166597 220.9375 44.69140625 C220 43 220 43 219 40 C218.01 39.67 217.02 39.34 216 39 C215.67 38.34 215.34 37.68 215 37 C211.65415447 35.72502422 208.58565201 36.08591645 205.0625 36.3125 C199.42318395 36.32620429 199.42318395 36.32620429 196 33.6875 C193.14369481 29.23251653 191.60366926 24.00753588 190 19 C189.67 18.01 189.34 17.02 189 16 C188.90817058 14.46050671 188.86997648 12.91722145 188.875 11.375 C188.87242187 10.57835937 188.86984375 9.78171875 188.8671875 8.9609375 C189 7 189 7 190 6 C192.79085659 5.8987505 195.55639885 5.86032069 198.34765625 5.8671875 C199.19291367 5.86623077 200.03817108 5.86527405 200.90904236 5.86428833 C202.70555699 5.86360599 204.50207405 5.86546401 206.29858398 5.86962891 C209.02658783 5.87493021 211.75442351 5.86970996 214.48242188 5.86328125 C216.22916703 5.86394293 217.97591207 5.86522594 219.72265625 5.8671875 C220.5313063 5.86516327 221.33995636 5.86313904 222.17311096 5.86105347 C227.19978673 5.88144645 232.02329439 6.2845253 237 7 C237.33 6.34 237.66 5.68 238 5 C238.33 5.66 238.66 6.32 239 7 C240.79010833 7.64880368 242.60900617 8.21892154 244.4375 8.75 C259.85552893 13.75585355 272.75870942 25.06883209 281 39 C281.34363374 40.33071588 281.68005126 41.66339172 282 43 C282.66 43.33 283.32 43.66 284 44 C284.78125 46.1875 284.78125 46.1875 285.5 49 C285.75652344 49.98871094 286.01304687 50.97742188 286.27734375 51.99609375 C287.09375855 55.3897315 287.82156367 58.79356864 288.47265625 62.22265625 C288.91560231 64.23344434 288.91560231 64.23344434 291 66 C290.34 66 289.68 66 289 66 C289.16238096 67.22993903 289.32476192 68.45987806 289.49206352 69.72708797 C290.14090633 75.60992136 290.13864738 81.45365492 290.12698364 87.36659241 C290.12854363 88.58938272 290.13010362 89.81217304 290.13171089 91.07201761 C290.13499715 94.44718692 290.13383047 97.82230017 290.13072467 101.19746602 C290.12845364 104.84902771 290.13195966 108.50058465 290.13470459 112.15214539 C290.13915146 119.31591038 290.13818817 126.47966489 290.13529195 133.6434303 C290.1330226 139.50453563 290.13273204 145.36563805 290.13381577 151.2267437 C290.133969 152.06509822 290.13412223 152.90345275 290.13428011 153.76721196 C290.13459992 155.4717755 290.13492414 157.17633904 290.1352527 158.88090258 C290.13810717 174.88956303 290.13482671 190.89821776 290.12945233 206.90687727 C290.12503571 220.47673947 290.12571702 234.04659306 290.13037109 247.61645508 C290.13580775 263.47478658 290.13777894 279.33311298 290.13475883 295.19144529 C290.13444042 296.90858455 290.13412605 298.62572382 290.13381577 300.34286308 C290.13366149 301.1869511 290.13350721 302.03103912 290.13334826 302.90070556 C290.13250593 308.68440075 290.13391663 314.46809252 290.13629532 320.25178719 C290.14906189 354.44194238 290.03754329 388.6266463 289.58563146 422.81418841 C289.55446813 425.19987306 289.52477544 427.5855723 289.49537492 429.97127926 C289.44903677 433.68728027 289.397574 437.40317573 289.34188429 441.11904807 C289.31265967 443.1232365 289.28744275 445.12748212 289.26235652 447.13172662 C289.12542975 455.57513523 288.46328679 462.88564353 286 471 C285.690625 472.2375 285.38125 473.475 285.0625 474.75 C284.0010283 477.99685462 283.33900026 478.75845808 281 481 C280.773125 481.886875 280.54625 482.77375 280.3125 483.6875 C278.66271283 487.85124858 276.23468764 490.01119872 273.015625 493.05078125 C271.31501982 494.69535874 269.87739026 496.32044229 268.4375 498.1875 C263.95205637 503.36301188 258.50841328 506.4172477 252.5625 509.6875 C251.51191406 510.26886719 250.46132813 510.85023438 249.37890625 511.44921875 C234.37985274 517.59977799 215.62731499 515.2885588 199.72852588 515.26144934 C195.75992841 515.25688296 191.79134789 515.26392896 187.82275391 515.26940918 C180.07046844 515.27825911 172.3182219 515.27640135 164.56593497 515.2705839 C158.26395846 515.26605194 151.96199279 515.2654611 145.66001511 515.26763153 C144.76030241 515.267938 143.86058971 515.26824446 142.93361299 515.26856022 C141.10547285 515.26919971 139.27733271 515.26984814 137.44919257 515.2705054 C120.34647362 515.27619528 103.24377618 515.2696709 86.14106075 515.25890467 C71.47993471 515.24996121 56.81884033 515.25153034 42.15771484 515.26074219 C25.10343892 515.27145277 8.04918178 515.2756557 -9.00509703 515.26951766 C-10.82436792 515.2688806 -12.64363881 515.26825186 -14.4629097 515.26763153 C-15.80536923 515.2671687 -15.80536923 515.2671687 -17.17494916 515.26669653 C-23.46926164 515.26497264 -29.76356215 515.26787789 -36.05787277 515.27259064 C-43.72811348 515.27820783 -51.39831328 515.27666501 -59.06854932 515.26602915 C-62.97868678 515.26078514 -66.88875607 515.2586941 -70.79889297 515.26532745 C-74.38247779 515.27131484 -77.96593167 515.26796616 -81.54950471 515.25737235 C-83.45011833 515.25410281 -85.35074114 515.26058402 -87.25134504 515.26748681 C-96.98659698 515.22316697 -105.52152847 513.76648939 -114.625 510.375 C-115.83414063 509.92898438 -117.04328125 509.48296875 -118.2890625 509.0234375 C-119.18367188 508.68570312 -120.07828125 508.34796875 -121 508 C-121 507.34 -121 506.68 -121 506 C-122.0209375 505.6596875 -122.0209375 505.6596875 -123.0625 505.3125 C-126.6988709 503.68773854 -130.02829263 501.67196743 -133 499 C-133 498.34 -133 497.68 -133 497 C-133.66 497 -134.32 497 -135 497 C-135.99 495.515 -135.99 495.515 -137 494 C-137.62003906 493.72800781 -138.24007812 493.45601562 -138.87890625 493.17578125 C-146.83521157 488.76537996 -151.44724852 474.063627 -154 466 C-154.95346029 462.06607376 -155.12620105 458.40079549 -155.12863445 454.35709 C-155.13126401 453.37090983 -155.13126401 453.37090983 -155.13394669 452.36480683 C-155.13860448 450.15824289 -155.13614173 447.95174491 -155.13371277 445.74517822 C-155.13558088 444.14843083 -155.13788159 442.5516839 -155.14057809 440.9549377 C-155.14670306 436.56383745 -155.14656166 432.17275623 -155.14538372 427.78165269 C-155.14517987 423.0465352 -155.15069712 418.31142384 -155.15544128 413.5763092 C-155.16375363 404.29549039 -155.16649644 395.01467792 -155.16705366 385.73385569 C-155.16752881 378.18549221 -155.16958352 370.63713083 -155.17275429 363.08876801 C-155.18156462 341.6781254 -155.1861734 320.26748781 -155.18542381 298.85684338 C-155.18538386 297.70219542 -155.1853439 296.54754745 -155.18530273 295.35791016 C-155.18526185 294.20184779 -155.18522097 293.04578543 -155.18517885 291.85469088 C-155.1847729 273.14265734 -155.19432871 254.43064398 -155.2084411 235.71861628 C-155.22282399 216.49573351 -155.22971014 197.27286057 -155.22884732 178.0499723 C-155.22851588 167.26190576 -155.23123953 156.47386033 -155.24202538 145.68579865 C-155.25115584 136.49449262 -155.25328499 127.30321726 -155.24651595 118.11190864 C-155.24326278 113.42732998 -155.24315018 108.74281006 -155.2518692 104.05823708 C-155.25978934 99.758362 -155.25824713 95.45859172 -155.24958507 91.15871903 C-155.24806205 89.61416124 -155.24982027 88.0695954 -155.25544515 86.52504709 C-155.31801229 68.10452944 -155.3803681 44.67791411 -142.5 30.1875 C-141.675 29.465625 -140.85 28.74375 -140 28 C-139.113125 27.071875 -138.22625 26.14375 -137.3125 25.1875 C-135 23 -135 23 -133 23 C-132.67 22.01 -132.34 21.02 -132 20 C-129 18 -129 18 -126.3125 18.375 C-125.549375 18.58125 -124.78625 18.7875 -124 19 C-123.87625 20.3303125 -123.87625 20.3303125 -123.75 21.6875 C-122.63401998 29.48341758 -120.30409091 37.38666132 -116 44 C-115.51660156 44.7528125 -115.03320312 45.505625 -114.53515625 46.28125 C-110.21875954 53.62943732 -110.21875954 53.62943732 -104 59 C-104 59.66 -104 60.32 -104 61 C-102.824375 61.2475 -102.824375 61.2475 -101.625 61.5 C-99 63 -99 63 -98.328125 64.87890625 C-98.02930313 66.31891856 -97.77040587 67.76787257 -97.5546875 69.22265625 C-97.37164062 69.80917969 -97.18859375 70.39570313 -97 71 C-96.01 71.33 -95.02 71.66 -94 72 C-92.36065917 73.98087018 -90.9536291 76.06762422 -89.5 78.1875 C-87.40565445 80.71816753 -85.48907711 80.94266969 -82.30078125 81.31640625 C-80.82158203 81.43822266 -80.82158203 81.43822266 -79.3125 81.5625 C-77.82169922 81.68818359 -77.82169922 81.68818359 -76.30078125 81.81640625 C-75.54152344 81.87699219 -74.78226562 81.93757813 -74 82 C-74 81.34 -74 80.68 -74 80 C-73.30132812 79.84144531 -72.60265625 79.68289062 -71.8828125 79.51953125 C-66.4302479 78.37724078 -66.4302479 78.37724078 -62.5625 74.8125 C-62.376875 73.884375 -62.19125 72.95625 -62 72 C-61.46375 70.845 -60.9275 69.69 -60.375 68.5 C-57.84656449 61.65377462 -57.61642024 53.2668005 -60.5 46.5 C-63.09574827 42.25729421 -66.33471921 39.70558653 -71 38 C-73.34857663 37.70202603 -75.70403392 37.45551989 -78.0625 37.25 C-84.32075082 36.5725259 -84.32075082 36.5725259 -87.38671875 33.98828125 C-89.12390236 31.72666485 -90.60170563 29.482415 -92 27 C-92.66 26.01 -93.32 25.02 -94 24 C-94.25760279 21.30547479 -94.08900053 18.71451625 -94 16 C-94.66 16 -95.32 16 -96 16 C-96 13.03 -96 10.06 -96 7 C-93.25334611 5.62667306 -91.06375932 5.88035108 -87.98974609 5.88647461 C-86.72858978 5.88655014 -85.46743347 5.88662567 -84.1680603 5.88670349 C-82.78651897 5.89181051 -81.40497804 5.89702651 -80.0234375 5.90234375 C-78.6138209 5.90420856 -77.20420366 5.90563217 -75.79458618 5.90663147 C-72.08246068 5.91045167 -68.37037422 5.92027772 -64.65826416 5.93133545 C-60.87113981 5.94156025 -57.08400917 5.94613138 -53.296875 5.95117188 C-45.86456552 5.96190042 -38.43228823 5.97897089 -31 6 C-29.93347808 8.30368736 -28.93578995 10.64018187 -28 13 C-28.33 13.66 -28.66 14.32 -29 15 C-30.56642375 28.97731961 -22.73560466 43.70783777 -14.8125 54.8125 C-12.5548882 57.62678321 -10.20694019 59.30220813 -7 61 C-7 61.66 -7 62.32 -7 63 C-6.38382813 63.25136719 -5.76765625 63.50273437 -5.1328125 63.76171875 C-2.64142034 65.20818636 -2.05297744 66.22391932 -0.875 68.8125 C-0.53984375 69.52277344 -0.2046875 70.23304688 0.140625 70.96484375 C1 73 1 73 1.875 75.875 C2.88352795 78.32458877 2.88352795 78.32458877 6 79.25 C7.485 79.62125 7.485 79.62125 9 80 C9.66 80.33 10.32 80.66 11 81 C13.37402501 81.07116382 15.75000677 81.08409085 18.125 81.0625 C19.40632812 81.05347656 20.68765625 81.04445313 22.0078125 81.03515625 C22.99523437 81.02355469 23.98265625 81.01195312 25 81 C25 80.34 25 79.68 25 79 C25.9075 78.525625 26.815 78.05125 27.75 77.5625 C31.67800816 75.00277904 32.8908638 71.7244148 34.3203125 67.37109375 C35.61309471 60.95919119 35.29385256 54.50556925 35 48 C34.34 48 33.68 48 33 48 C33 46.68 33 45.36 33 44 C32.34 44 31.68 44 31 44 C31 42.68 31 41.36 31 40 C30.195625 39.731875 29.39125 39.46375 28.5625 39.1875 C27.716875 38.795625 26.87125 38.40375 26 38 C25.67 37.01 25.34 36.02 25 35 C23.98679687 35.08121094 22.97359375 35.16242188 21.9296875 35.24609375 C11.44412146 35.84176064 11.44412146 35.84176064 7.80859375 33.72265625 C6.22977525 31.90474774 5.12290066 30.12695418 4 28 C3.60554687 27.44441406 3.21109375 26.88882813 2.8046875 26.31640625 C-1.37631452 19.75252545 -1.99946898 9.08529817 -0.51171875 1.515625 C-0.34285156 1.01546875 -0.17398438 0.5153125 0 0 Z " fill="#FEFEFD" transform="translate(286,122)"/>
<path d="M0 0 C1.14703455 -0.00199105 2.29406909 -0.0039821 3.47586226 -0.00603348 C4.73655099 -0.00312064 5.99723972 -0.0002078 7.29613113 0.00279331 C8.64839328 0.00235731 10.00065534 0.00148188 11.35291696 0.00020415 C15.07220497 -0.0020352 18.79146427 0.00197285 22.51074862 0.00698221 C26.52025906 0.01129452 30.52976784 0.00983973 34.53927994 0.00907993 C41.48716237 0.0085552 48.43503542 0.01169677 55.3829155 0.01731777 C65.42842443 0.02543954 75.47392882 0.02804869 85.51944068 0.02930576 C101.81701601 0.03149521 118.11458635 0.03815242 134.41215897 0.04760838 C150.24516652 0.05678525 166.07817272 0.06386474 181.9111824 0.06811619 C182.88687906 0.06837891 183.86257572 0.06864164 184.86783895 0.06891232 C189.7625477 0.07021734 194.65725647 0.07148105 199.55196524 0.07272422 C240.1682898 0.08309351 280.78460886 0.10070894 321.4009285 0.12304783 C321.4009285 0.78304783 321.4009285 1.44304783 321.4009285 2.12304783 C321.9990535 2.26742283 322.5971785 2.41179783 323.2134285 2.56054783 C328.23876634 3.85277756 328.23876634 3.85277756 330.0884285 6.93554783 C332.10836071 12.16360767 332.21075395 17.62234664 331.4009285 23.12304783 C329.21466593 27.90666506 325.18085075 30.3183636 320.4009285 32.12304783 C316.06420335 32.56990411 311.74468617 32.53180351 307.38824844 32.51072788 C306.04749431 32.51490251 304.7067437 32.52038074 303.36599964 32.52704769 C299.68748799 32.54150421 296.00920036 32.53725701 292.33067644 32.52988088 C288.36126435 32.52515202 284.39190093 32.53765655 280.42250443 32.54789829 C272.64845546 32.56509704 264.87448729 32.5659241 257.10042424 32.56068539 C250.78196864 32.55664454 244.46353693 32.55808624 238.14508247 32.56343365 C237.24592407 32.56418207 236.34676567 32.56493049 235.42036004 32.56570159 C233.59374436 32.56723306 231.76712868 32.56877141 229.94051301 32.57031656 C212.80978523 32.58404544 195.67910311 32.57860114 178.54837637 32.56713135 C162.87534797 32.55719805 147.20243761 32.57014062 131.52942742 32.59406554 C115.43668477 32.61844613 99.34399713 32.628067 83.25123638 32.62141281 C74.21623009 32.61791834 65.18131459 32.62016769 56.14632225 32.63766384 C48.45522116 32.6523728 40.76427482 32.65303838 33.07317681 32.63559293 C29.14922965 32.62706982 25.22555907 32.62496513 21.30162621 32.64024448 C17.70841343 32.65406284 14.11571491 32.64936579 10.5225321 32.63000525 C8.60927608 32.62445261 6.69599407 32.63854061 4.78278738 32.65335935 C-1.88805912 32.59604753 -6.21099844 32.19170664 -11.5990715 28.12304783 C-15.1299584 23.49484269 -16.20724385 17.92823544 -15.9271965 12.19726658 C-15.22763939 7.77506624 -13.18138419 3.84560547 -9.5990715 1.12304783 C-6.36919727 0.07607176 -3.38127057 -0.00129451 0 0 Z " fill="#DAC2AD" transform="translate(194.59907150268555,366.8769521713257)"/>
<path d="M0 0 C1.14046766 -0.00507454 2.28093531 -0.01014909 3.4559626 -0.0153774 C4.70934978 -0.01587516 5.96273696 -0.01637292 7.25410557 -0.01688576 C8.59868053 -0.02090165 9.94325429 -0.02534008 11.2878266 -0.03016531 C14.98604834 -0.04212175 18.68425705 -0.04777706 22.38249433 -0.05234647 C26.36961399 -0.05830576 30.35671809 -0.06991447 34.34382725 -0.08063698 C43.97221774 -0.10514847 53.60061337 -0.11978371 63.22902545 -0.13269705 C65.94756778 -0.13640906 68.6661096 -0.14038226 71.38465142 -0.14444971 C88.26154335 -0.16967981 105.13843609 -0.1917357 122.01534271 -0.20417786 C125.92350804 -0.2071076 129.83167334 -0.21006926 133.7398386 -0.21308327 C134.71120546 -0.21382932 135.68257231 -0.21457537 136.68337453 -0.21534403 C152.43225596 -0.22800801 168.18102476 -0.26124645 183.92985349 -0.3028851 C200.0925724 -0.34526859 216.25523356 -0.36886849 232.41800791 -0.37409842 C241.49549967 -0.37751597 250.5728152 -0.38931201 259.65025234 -0.42220116 C267.37769356 -0.45015321 275.10492241 -0.46122225 282.83241027 -0.4500057 C286.77642119 -0.44480711 290.71998703 -0.44778296 294.66393375 -0.47247124 C298.27322872 -0.4948767 301.88175665 -0.49429298 305.49106426 -0.47526737 C307.4178525 -0.47112092 309.34464474 -0.49167702 311.27131885 -0.51305425 C320.59341419 -0.42683715 320.59341419 -0.42683715 323.63054848 2.542202 C324.22453658 3.39849009 324.81852468 4.25477818 325.43051243 5.13701439 C326.29676243 6.18888939 326.29676243 6.18888939 327.18051243 7.26201439 C329.30749368 10.45248627 329.54700456 13.09905737 329.49301243 16.82451439 C329.48398899 17.63275658 329.47496555 18.44099876 329.46566868 19.27373314 C329.44826633 20.19605736 329.44826633 20.19605736 329.43051243 21.13701439 C328.77051243 21.13701439 328.11051243 21.13701439 327.43051243 21.13701439 C327.30676243 21.87951439 327.18301243 22.62201439 327.05551243 23.38701439 C325.98803455 28.08391704 325.98803455 28.08391704 324.43051243 30.13701439 C317.90610134 32.71559296 311.36561394 32.42483181 304.43165684 32.41116905 C302.46091307 32.41902407 302.46091307 32.41902407 300.4503563 32.42703778 C296.81415047 32.44118054 293.17803026 32.44288178 289.54180086 32.44244087 C285.61597936 32.44409234 281.69019281 32.45716487 277.76438999 32.46863365 C269.18589474 32.49145565 260.60742427 32.49940098 252.02890277 32.5044601 C246.67031502 32.50771984 241.31173444 32.51424392 235.95315075 32.52146149 C221.10975438 32.54102238 206.26636465 32.55743004 191.42295456 32.56033802 C190.4736452 32.56052559 189.52433585 32.56071316 188.54625954 32.56090641 C186.62188613 32.56127266 184.69751273 32.56163636 182.77313932 32.56199753 C181.8179118 32.56218034 180.86268428 32.56236315 179.87851048 32.5625515 C178.92211413 32.56273205 177.96571779 32.5629126 176.98033974 32.56309862 C161.48074763 32.56664084 145.9812944 32.59366854 130.48175045 32.63104939 C114.55959839 32.66914154 98.63751523 32.68849556 82.71531659 32.68879753 C73.77912268 32.68938183 64.84309453 32.69785654 55.90694332 32.7267952 C48.2986501 32.75132102 40.69058313 32.75858377 33.08226105 32.74354767 C29.20242242 32.73638409 25.32303047 32.73721196 21.44324207 32.75995827 C17.23194028 32.78441114 13.02165245 32.76989761 8.81031895 32.75174522 C7.59133685 32.76494519 6.37235475 32.77814516 5.1164338 32.79174513 C-2.45275001 32.7172768 -8.26195801 31.49080708 -14.56948757 27.13701439 C-18.09097071 22.78694699 -18.02371499 18.17229176 -17.85464382 12.76201439 C-17.47596736 9.276116 -16.62936402 6.97822328 -14.56948757 4.13701439 C-9.86560337 0.63925434 -5.74987217 0.01359005 0 0 Z " fill="#DAC2AE" transform="translate(196.5694875717163,445.8629856109619)"/>
<path d="M0 0 C1.1420588 -0.00597315 2.28411761 -0.01194629 3.46078426 -0.01810044 C5.33577524 -0.00499265 5.33577524 -0.00499265 7.24864483 0.00837994 C8.59352208 0.00707152 9.93839859 0.00444442 11.28327101 0.00061244 C14.97758374 -0.0060974 18.67163568 0.00590684 22.36591518 0.02094662 C26.35018618 0.0338956 30.33444233 0.02951833 34.31872845 0.0272398 C41.22133465 0.02566634 48.12385581 0.03508309 55.02644062 0.05195332 C65.0064197 0.07632895 74.98635765 0.08414712 84.96636327 0.08791729 C101.15802988 0.09448403 117.34965115 0.11445123 133.54129314 0.14282513 C149.2704575 0.17035994 164.99960955 0.19159635 180.72879314 0.20434856 C182.18298306 0.20553082 182.18298306 0.20553082 183.66655055 0.20673696 C188.53002046 0.21065206 193.39349046 0.21444318 198.25696051 0.21817267 C238.60771034 0.2492755 278.95841028 0.30211736 319.30911541 0.36914349 C319.30911541 1.02914349 319.30911541 1.68914349 319.30911541 2.36914349 C320.05161541 2.61664349 320.79411541 2.86414349 321.55911541 3.11914349 C325.64090689 4.97450325 327.65579739 7.03139706 329.62161541 11.05664349 C330.67273416 16.12112475 330.61010356 20.71693598 328.29739666 25.43164349 C325.73060832 29.31826306 323.78428431 30.86294828 319.30911541 32.36914349 C316.61341876 32.62329382 316.61341876 32.62329382 313.64057732 32.6292057 C312.5034521 32.63627129 311.36632689 32.64333689 310.19474334 32.65061659 C308.32793779 32.64699396 308.32793779 32.64699396 306.423419 32.64329815 C305.0842421 32.64775152 303.74506784 32.65306589 302.40589744 32.65916687 C298.72710727 32.67334534 295.0484016 32.6750102 291.36958802 32.67456996 C287.40150622 32.67621829 283.43345921 32.68928504 279.46539593 32.70076275 C270.7898122 32.72360984 262.11425295 32.73153291 253.43864322 32.73658919 C248.02145349 32.73984627 242.60427086 32.74636877 237.18708515 32.75359058 C222.18763966 32.7731554 207.18820076 32.78956055 192.18874168 32.79246712 C191.22895613 32.79265469 190.26917057 32.79284226 189.28030061 32.79303551 C187.3345981 32.79340176 185.3888956 32.79376546 183.4431931 32.79412662 C182.47734834 32.79430943 181.51150358 32.79449224 180.5163908 32.7946806 C179.06585509 32.79495142 179.06585509 32.79495142 177.58601562 32.79522771 C161.91358296 32.79877005 146.24128765 32.82579668 130.56890263 32.86317848 C114.47732176 32.90125299 98.38580905 32.92062453 82.29418212 32.92092663 C73.25965423 32.92151136 64.22529021 32.93001352 55.19080448 32.95892429 C47.49859736 32.98342662 39.80661389 32.99072882 32.1143783 32.97567677 C28.19024742 32.96850333 24.2665583 32.96938351 20.34247684 32.99208736 C16.74785645 33.01268568 13.15401719 33.01007011 9.55940519 32.98921252 C7.6478147 32.98406822 5.73620643 33.00349074 3.8247177 33.02387422 C-3.18717386 32.95535277 -8.39603504 32.2565618 -13.69088459 27.36914349 C-16.99898122 22.40699853 -17.75677252 16.24158267 -16.69088459 10.36914349 C-12.99832666 3.9257538 -7.49426339 -0.00866389 0 0 Z " fill="#DAC2AE" transform="translate(195.69088459014893,286.63085651397705)"/>
<path d="M0 0 C26.26842643 -0.07002553 52.53683891 -0.1229565 78.80533981 -0.15543652 C91.00176866 -0.17091719 103.19813958 -0.19202965 115.39453125 -0.22631836 C126.02268424 -0.25618395 136.65079529 -0.27556627 147.27898908 -0.28226548 C152.90854665 -0.28618255 158.53798419 -0.29541315 164.16750336 -0.31719017 C169.4632063 -0.33751043 174.75873946 -0.34384283 180.05447769 -0.33932304 C182.00077613 -0.34015024 183.94708009 -0.34614235 185.89334488 -0.35761642 C188.54586722 -0.37249075 191.19774422 -0.36897219 193.85028076 -0.36076355 C194.62460095 -0.36950207 195.39892114 -0.3782406 196.19670558 -0.38724393 C199.42622164 -0.36013587 201.66062339 -0.18901054 204.50935745 1.39754772 C206 3 206 3 206 5 C206.66 5 207.32 5 208 5 C211.39366878 10.37330889 211.32712342 14.86946489 211 21 C210.34 21.33 209.68 21.66 209 22 C208.07244648 24.00017465 207.27666127 26.03108835 206.48828125 28.08984375 C204.28149574 30.92217477 201.38771469 31.33531388 198 32 C195.19242619 32.18347359 192.4863301 32.27907063 189.68174744 32.26742554 C188.46631102 32.27422221 188.46631102 32.27422221 187.22632033 32.28115618 C184.52573998 32.29376234 181.82536227 32.2921823 179.12475586 32.29052734 C177.18274172 32.29651476 175.24072996 32.3033208 173.29872131 32.31088257 C168.03442527 32.32852315 162.77019428 32.33323699 157.50587153 32.33451414 C154.21639185 32.33593683 150.92692866 32.34020856 147.63745308 32.34550858 C136.16055375 32.36399892 124.68370084 32.37218 113.20678711 32.37060547 C102.50883115 32.36940274 91.81107651 32.39053345 81.11317152 32.4220928 C71.9248926 32.44823286 62.73667957 32.45897379 53.54836375 32.45769465 C48.06190917 32.45718456 42.57563376 32.46289431 37.08921623 32.48405075 C31.93205737 32.50339606 26.77524937 32.50358297 21.61807823 32.48901749 C19.7258325 32.48692403 17.83356501 32.49166214 15.94135666 32.5037384 C13.35758041 32.51916043 10.77501875 32.50990356 8.19126892 32.49447632 C7.44311305 32.50476344 6.69495717 32.51505057 5.9241299 32.52564943 C0.81666493 32.4582845 -2.04702014 31.18218988 -6 28 C-10.10142138 23.47429365 -10.45698106 18.47979997 -10.421875 12.546875 C-9.72169877 8.31988514 -7.29441256 5.62110196 -4 3 C-3.01 2.67 -2.02 2.34 -1 2 C-0.67 1.34 -0.34 0.68 0 0 Z " fill="#DAC3AE" transform="translate(189,525)"/>
<path d="M0 0 C14.6311863 1.53720059 26.04957757 10.67072202 35.32324219 21.55273438 C38.78085448 25.83567681 41.70531086 29.62943763 43 35 C43.99 35.495 43.99 35.495 45 36 C45.78125 38.1875 45.78125 38.1875 46.5 41 C46.88478516 42.48306641 46.88478516 42.48306641 47.27734375 43.99609375 C48.09375855 47.3897315 48.82156367 50.79356864 49.47265625 54.22265625 C49.91560231 56.23344434 49.91560231 56.23344434 52 58 C51.34 58 50.68 58 50 58 C50.16238096 59.22993903 50.32476192 60.45987806 50.49206352 61.72708797 C51.14090633 67.60992136 51.13864738 73.45365492 51.12698364 79.36659241 C51.12854363 80.58938272 51.13010362 81.81217304 51.13171089 83.07201761 C51.13499715 86.44718692 51.13383047 89.82230017 51.13072467 93.19746602 C51.12845364 96.84902771 51.13195966 100.50058465 51.13470459 104.15214539 C51.13915146 111.31591038 51.13818817 118.47966489 51.13529195 125.6434303 C51.1330226 131.50453563 51.13273204 137.36563805 51.13381577 143.2267437 C51.133969 144.06509822 51.13412223 144.90345275 51.13428011 145.76721196 C51.13459992 147.4717755 51.13492414 149.17633904 51.1352527 150.88090258 C51.13810717 166.88956303 51.13482671 182.89821776 51.12945233 198.90687727 C51.12503571 212.47673947 51.12571702 226.04659306 51.13037109 239.61645508 C51.13580775 255.47478658 51.13777894 271.33311298 51.13475883 287.19144529 C51.13444042 288.90858455 51.13412605 290.62572382 51.13381577 292.34286308 C51.13358435 293.60899511 51.13358435 293.60899511 51.13334826 294.90070556 C51.13250593 300.68440075 51.13391663 306.46809252 51.13629532 312.25178719 C51.14906189 346.44194238 51.03754329 380.6266463 50.58563146 414.81418841 C50.55446813 417.19987306 50.52477544 419.5855723 50.49537492 421.97127926 C50.44903677 425.68728027 50.397574 429.40317573 50.34188429 433.11904807 C50.31265967 435.1232365 50.28744275 437.12748212 50.26235652 439.13172662 C50.06585326 451.24884072 50.06585326 451.24884072 49 456 C48.34 456.33 47.68 456.66 47 457 C47.00075944 456.1585485 47.00151888 455.317097 47.00230134 454.45014697 C47.04707079 404.56374968 47.08137985 354.67735453 47.10213066 304.79094117 C47.10463203 298.79918535 47.10722068 292.80742958 47.10986328 286.81567383 C47.11065021 285.02642002 47.11065021 285.02642002 47.11145304 283.20101967 C47.1201524 263.89428116 47.1359198 244.58755458 47.15430559 225.28082315 C47.17301768 205.46599368 47.1841195 185.65117045 47.18817699 165.8363325 C47.19091932 153.61245288 47.19957661 141.38860697 47.21583293 129.16473772 C47.22641596 120.77902189 47.22959763 112.39332345 47.22700275 104.00760142 C47.22572353 99.17165648 47.22766574 94.3357704 47.23841095 89.49983597 C47.24819016 85.06612805 47.24860476 80.63251822 47.24179779 76.19880565 C47.24095729 74.60100556 47.24345461 73.00319919 47.24976636 71.40541134 C47.4908186 54.12065904 47.4908186 54.12065904 42.375 37.875 C40 33.24855491 40 33.24855491 40 30 C39.34 30 38.68 30 38 30 C36.66796875 28.20703125 36.66796875 28.20703125 35.1875 25.8125 C28.67102669 15.76299899 19.74372556 9.97700509 9 5.125 C8.12988281 4.7228125 7.25976562 4.320625 6.36328125 3.90625 C4.24590905 2.92900129 2.12501282 1.96049039 0 1 C0 0.67 0 0.34 0 0 Z " fill="#EDE4DC" transform="translate(525,130)"/>
<path d="M0 0 C-1.81137502 1.16002441 -3.65120455 2.27559494 -5.5 3.375 C-7.03140625 4.31472656 -7.03140625 4.31472656 -8.59375 5.2734375 C-23.19638027 11.93583723 -42.58173357 9.28820235 -58.27147412 9.26144934 C-62.24007159 9.25688296 -66.20865211 9.26392896 -70.17724609 9.26940918 C-77.92953156 9.27825911 -85.6817781 9.27640135 -93.43406503 9.2705839 C-99.73604154 9.26605194 -106.03800721 9.2654611 -112.33998489 9.26763153 C-113.68955394 9.26809123 -113.68955394 9.26809123 -115.06638701 9.26856022 C-116.89452715 9.26919971 -118.72266729 9.26984814 -120.55080743 9.2705054 C-137.65352638 9.27619528 -154.75622382 9.2696709 -171.85893925 9.25890467 C-186.52006529 9.24996121 -201.18115967 9.25153034 -215.84228516 9.26074219 C-232.89656108 9.27145277 -249.95081822 9.2756557 -267.00509703 9.26951766 C-268.82436792 9.2688806 -270.64363881 9.26825186 -272.4629097 9.26763153 C-273.80536923 9.2671687 -273.80536923 9.2671687 -275.17494916 9.26669653 C-281.46926164 9.26497264 -287.76356215 9.26787789 -294.05787277 9.27259064 C-301.72811348 9.27820783 -309.39831328 9.27666501 -317.06854932 9.26602915 C-320.97868678 9.26078514 -324.88875607 9.2586941 -328.79889297 9.26532745 C-332.38247779 9.27131484 -335.96593167 9.26796616 -339.54950471 9.25737235 C-341.45011833 9.25410281 -343.35074114 9.26058402 -345.25134504 9.26748681 C-361.71117009 9.19255327 -361.71117009 9.19255327 -368 5 C-366.41632253 5.14204741 -364.83306682 5.28880153 -363.25 5.4375 C-362.36828125 5.51871094 -361.4865625 5.59992187 -360.578125 5.68359375 C-358 6 -358 6 -356.16447055 6.51191032 C-353.64751576 7.07948545 -351.37125167 7.12538376 -348.79034615 7.12584114 C-347.73003028 7.12844889 -346.66971442 7.13105664 -345.57726777 7.13374341 C-343.8313095 7.13039732 -343.8313095 7.13039732 -342.05007935 7.12698364 C-340.19388593 7.12932363 -340.19388593 7.12932363 -338.30019367 7.13171089 C-334.86280375 7.13501419 -331.42546832 7.13381861 -327.98808169 7.13072467 C-324.28080986 7.12846567 -320.57354285 7.13195297 -316.86627197 7.13470459 C-309.59761449 7.13915826 -302.32896732 7.13818691 -295.06030942 7.13529195 C-289.14335357 7.13303322 -283.22640059 7.13272745 -277.30944443 7.13381577 C-276.46707775 7.133969 -275.62471108 7.13412223 -274.75681814 7.13428011 C-273.04530836 7.13459985 -271.33379858 7.13492406 -269.62228881 7.1352527 C-253.555077 7.13810711 -237.48787088 7.1348227 -221.42066 7.12945233 C-207.67285249 7.12499894 -193.92505344 7.12574816 -180.17724609 7.13037109 C-164.19527926 7.13574283 -148.21331744 7.13781705 -132.23134983 7.13475883 C-130.52064633 7.13444031 -128.80994284 7.13412594 -127.09923935 7.13381577 C-125.83692616 7.13358435 -125.83692616 7.13358435 -124.5491117 7.13334826 C-118.65732409 7.13248979 -112.7655397 7.13393179 -106.87375259 7.13629532 C-99.6661715 7.1391231 -92.45860127 7.13829367 -85.2510214 7.13301457 C-81.58252937 7.13041501 -77.91405534 7.12930739 -74.24556351 7.13266373 C-61.35109839 7.14340046 -48.46540842 7.1277925 -35.58053589 6.57394409 C-34.71341795 6.53782678 -33.84630001 6.50170946 -32.95290577 6.46449769 C-23.05168493 5.97107611 -13.62487993 4.34506092 -4.76953125 -0.328125 C-3 -1 -3 -1 0 0 Z " fill="#EDE3D9" transform="translate(544,628)"/>
<path d="M0 0 C1.14703455 -0.00199105 2.29406909 -0.0039821 3.47586226 -0.00603348 C4.73655099 -0.00312064 5.99723972 -0.0002078 7.29613113 0.00279331 C8.64839328 0.00235731 10.00065534 0.00148188 11.35291696 0.00020415 C15.07220497 -0.0020352 18.79146427 0.00197285 22.51074862 0.00698221 C26.52025906 0.01129452 30.52976784 0.00983973 34.53927994 0.00907993 C41.48716237 0.0085552 48.43503542 0.01169677 55.3829155 0.01731777 C65.42842443 0.02543954 75.47392882 0.02804869 85.51944068 0.02930576 C101.81701601 0.03149521 118.11458635 0.03815242 134.41215897 0.04760838 C150.24516652 0.05678525 166.07817272 0.06386474 181.9111824 0.06811619 C182.88687906 0.06837891 183.86257572 0.06864164 184.86783895 0.06891232 C189.7625477 0.07021734 194.65725647 0.07148105 199.55196524 0.07272422 C240.1682898 0.08309351 280.78460886 0.10070894 321.4009285 0.12304783 C321.4009285 0.45304783 321.4009285 0.78304783 321.4009285 1.12304783 C320.3785891 1.1256522 320.3785891 1.1256522 319.33559638 1.12830919 C278.96084208 1.23128743 238.58610441 1.33938913 198.21138184 1.45416477 C193.36595414 1.46793471 188.52052632 1.48166176 183.67509842 1.49536228 C182.7104414 1.49809059 181.74578438 1.50081889 180.75189533 1.50362987 C165.12245206 1.54773169 149.49300158 1.5883561 133.86354569 1.62770044 C117.83202457 1.66813412 101.80051685 1.71229307 85.76901549 1.75992638 C75.87291028 1.7892121 65.97680608 1.81557539 56.08068343 1.8382268 C49.29897503 1.85402764 42.51728302 1.87343967 35.73559282 1.89571624 C31.82013404 1.90847037 27.90468786 1.91960852 23.98921394 1.92646694 C20.4058943 1.93277863 16.82261813 1.94361604 13.23932239 1.95808113 C11.32630706 1.96461834 9.41327702 1.96628711 7.50025111 1.96779341 C6.3651591 1.97326785 5.23006709 1.97874229 4.06057835 1.98438263 C3.08127961 1.98704067 2.10198088 1.98969871 1.09300643 1.9924373 C-5.78621102 2.32619369 -9.90091916 4.08931318 -14.5990715 9.12304783 C-13.42503645 5.78156344 -12.44472317 3.31201065 -9.5990715 1.12304783 C-6.37110497 0.07182499 -3.38035462 -0.00129416 0 0 Z " fill="#D8C7B9" transform="translate(194.59907150268555,366.8769521713257)"/>
<path d="M0 0 C0.12117188 1.05058594 0.24234375 2.10117188 0.3671875 3.18359375 C1.69646598 14.46497028 3.51403954 24.3633009 7.96777344 34.86157227 C9.18159061 37.75095226 10 39.83030631 10 43 C9.01 41.02 9.01 41.02 8 39 C7.34 39 6.68 39 6 39 C2.89570094 31.58862917 0.53556792 25.03351878 0 17 C-0.33 16.67 -0.66 16.34 -1 16 C-1.33 11.38 -1.66 6.76 -2 2 C-22.13 2 -42.26 2 -63 2 C-61.44451383 13.38926845 -61.44451383 13.38926845 -57.12109375 22.9765625 C-56 25 -56 25 -55 28 C-51.37 28 -47.74 28 -44 28 C-44 28.33 -44 28.66 -44 29 C-47.96 29 -51.92 29 -56 29 C-56.66 27.35 -57.32 25.7 -58 24 C-58.66 24 -59.32 24 -60 24 C-60.82065069 22.12855305 -61.6311584 20.25265664 -62.4375 18.375 C-63.11619141 16.80878906 -63.11619141 16.80878906 -63.80859375 15.2109375 C-66.01878222 9.2542984 -66.14875211 5.96639768 -64 0 C-56.54148507 -0.15421642 -49.08287557 -0.30239331 -41.62409019 -0.4429636 C-38.16029692 -0.50843081 -34.69656905 -0.57593999 -31.23291016 -0.64819336 C-27.24652925 -0.73125986 -23.26000484 -0.80530533 -19.2734375 -0.87890625 C-18.03572601 -0.90594131 -16.79801453 -0.93297638 -15.52279663 -0.96083069 C-14.3620462 -0.98092697 -13.20129578 -1.00102325 -12.00537109 -1.02172852 C-10.47981094 -1.05170677 -10.47981094 -1.05170677 -8.9234314 -1.08229065 C-5.86715727 -0.99626066 -3.00068779 -0.57008009 0 0 Z " fill="#F8EFE9" transform="translate(445,128)"/>
<path d="M0 0 C1.26115631 0.00007553 2.52231262 0.00015106 3.82168579 0.00022888 C5.20322712 0.0053359 6.58476806 0.0105519 7.96630859 0.01586914 C9.37592519 0.01773395 10.78554244 0.01915756 12.19515991 0.02015686 C15.90728542 0.02397706 19.61937187 0.03380311 23.33148193 0.04486084 C27.11860628 0.05508564 30.90573693 0.05965677 34.69287109 0.06469727 C42.12518058 0.07542581 49.55745786 0.09249628 56.98974609 0.11352539 C58.05626802 2.41721275 59.05395614 4.75370726 59.98974609 7.11352539 C59.65974609 7.77352539 59.32974609 8.43352539 58.98974609 9.11352539 C57.53358492 22.10696351 64.2176092 33.01043403 69.98974609 44.11352539 C70.65977127 45.44517417 71.32856634 46.77746268 71.98974609 48.11352539 C67.18974609 44.79044847 67.18974609 44.79044847 66.17724609 41.36352539 C66.11537109 40.62102539 66.05349609 39.87852539 65.98974609 39.11352539 C65.32974609 39.11352539 64.66974609 39.11352539 63.98974609 39.11352539 C57.35567429 26.76042617 55.98974609 16.2386768 55.98974609 2.11352539 C35.52974609 2.11352539 15.06974609 2.11352539 -6.01025391 2.11352539 C-6.01025391 4.75352539 -6.01025391 7.39352539 -6.01025391 10.11352539 C-6.67025391 10.11352539 -7.33025391 10.11352539 -8.01025391 10.11352539 C-8.01025391 7.14352539 -8.01025391 4.17352539 -8.01025391 1.11352539 C-5.26360002 -0.25980155 -3.07401323 -0.00612353 0 0 Z " fill="#EFE6DD" transform="translate(198.01025390625,127.886474609375)"/>
<path d="M0 0 C0.33 0 0.66 0 1 0 C1 1.98 1 3.96 1 6 C1.77452011 5.99777939 2.54904022 5.99555878 3.34703064 5.99327087 C10.63121021 5.97326866 17.91537655 5.95802623 25.19957638 5.94818783 C28.94483037 5.94295986 32.69006176 5.93586378 36.43530273 5.92456055 C40.04681687 5.91372859 43.65830921 5.90772251 47.26983833 5.90512276 C48.65060329 5.90326906 50.031367 5.89964951 51.41212273 5.89426994 C53.33975952 5.88705553 55.26741807 5.88659191 57.19506836 5.88647461 C58.29427109 5.884254 59.39347382 5.88203339 60.52598572 5.87974548 C63 6 63 6 64 7 C64.22670908 8.55753051 64.39435092 10.12377359 64.53515625 11.69140625 C64.62216797 12.63564453 64.70917969 13.57988281 64.79882812 14.55273438 C64.88583984 15.54595703 64.97285156 16.53917969 65.0625 17.5625 C65.19881836 19.05813477 65.19881836 19.05813477 65.33789062 20.58398438 C65.56258814 23.05565702 65.78310351 25.52763256 66 28 C60.99228167 20.48842251 62.86841036 21.02615541 62 8 C41.87 8 21.74 8 1 8 C1.99 13.94 2.98 19.88 4 26 C2 25 2 25 0.91796875 22.94140625 C-0.22274348 19.28627302 -0.49607558 15.73466434 -0.6875 11.9375 C-0.75807617 10.87692383 -0.75807617 10.87692383 -0.83007812 9.79492188 C-1.02725499 6.35240783 -1.13526187 3.28628437 0 0 Z " fill="#EFE5DD" transform="translate(286,122)"/>
<path d="M0 0 C0.12117188 1.05058594 0.24234375 2.10117188 0.3671875 3.18359375 C1.69646598 14.46497028 3.51403954 24.3633009 7.96777344 34.86157227 C9.18159061 37.75095226 10 39.83030631 10 43 C9.01 41.02 9.01 41.02 8 39 C7.34 39 6.68 39 6 39 C2.89570094 31.58862917 0.53556792 25.03351878 0 17 C-0.33 16.67 -0.66 16.34 -1 16 C-1 11.05 -1 6.1 -1 1 C-21.79 1 -42.58 1 -64 1 C-64 0.67 -64 0.34 -64 0 C-56.54148507 -0.15421642 -49.08287557 -0.30239331 -41.62409019 -0.4429636 C-38.16029692 -0.50843081 -34.69656905 -0.57593999 -31.23291016 -0.64819336 C-27.24652925 -0.73125986 -23.26000484 -0.80530533 -19.2734375 -0.87890625 C-18.03572601 -0.90594131 -16.79801453 -0.93297638 -15.52279663 -0.96083069 C-14.3620462 -0.98092697 -13.20129578 -1.00102325 -12.00537109 -1.02172852 C-10.47981094 -1.05170677 -10.47981094 -1.05170677 -8.9234314 -1.08229065 C-5.86715727 -0.99626066 -3.00068779 -0.57008009 0 0 Z " fill="#E9DED6" transform="translate(445,128)"/>
<path d="M0 0 C0.5053125 0.48597656 1.010625 0.97195312 1.53125 1.47265625 C5.78748832 4.10586698 10.57896976 3.42390211 15.46875 3.49609375 C19.48761377 4.06958205 20.49245581 4.93062397 23 8 C23.66 8.33 24.32 8.66 25 9 C25 9.66 25 10.32 25 11 C23.68 10.67 22.36 10.34 21 10 C21 10.66 21 11.32 21 12 C20.34 12 19.68 12 19 12 C18.34 13.32 17.68 14.64 17 16 C16.773125 15.21625 16.54625 14.4325 16.3125 13.625 C15.21875 10.78125 15.21875 10.78125 12.375 9.6875 C11.59125 9.460625 10.8075 9.23375 10 9 C10 8.34 10 7.68 10 7 C9.01 7 8.02 7 7 7 C7 6.34 7 5.68 7 5 C6.21625 4.9175 5.4325 4.835 4.625 4.75 C2 4 2 4 0.6875 1.9375 C0.460625 1.298125 0.23375 0.65875 0 0 Z " fill="#DECCBC" transform="translate(292,153)"/>
<path d="M0 0 C0.66 0 1.32 0 2 0 C1.64658169 8.26998841 1.64658169 8.26998841 -0.9375 11.1875 C-1.618125 11.785625 -2.29875 12.38375 -3 13 C-3.2475 13.9075 -3.495 14.815 -3.75 15.75 C-5.3456437 19.89867361 -7.79007439 22.03458013 -10.984375 25.05078125 C-12.68498018 26.69535874 -14.12260974 28.32044229 -15.5625 30.1875 C-18.43153235 33.49792194 -21.36413203 35.57608802 -25 38 C-25 35 -25 35 -24 33 C-23.319375 32.62875 -22.63875 32.2575 -21.9375 31.875 C-17.41938066 28.99109404 -12.432778 24.865556 -10 20 C-9.34 20 -8.68 20 -8 20 C-7.81824219 19.38511719 -7.63648438 18.77023437 -7.44921875 18.13671875 C-7.19785156 17.32847656 -6.94648437 16.52023437 -6.6875 15.6875 C-6.32205078 14.48673828 -6.32205078 14.48673828 -5.94921875 13.26171875 C-4.94196286 10.86171397 -3.81231131 9.81231131 -2 8 C-1.22186348 5.96658113 -1.22186348 5.96658113 -0.8125 3.8125 C-0.544375 2.554375 -0.27625 1.29625 0 0 Z " fill="#ECE3DA" transform="translate(570,590)"/>
<path d="M0 0 C3.31038635 2.40755371 5.89913586 4.99485716 8.5 8.125 C11.1645745 11.25775353 13.04399697 12.71697199 17 14 C18.35308313 15.31328657 19.68870078 16.64499081 21 18 C21.99 18.33 22.98 18.66 24 19 C23.01 19.66 22.02 20.32 21 21 C21.57352893 24.87132028 23.48704352 27.08172796 26 30 C23.50638429 28.79618552 21.31856917 27.54571278 19 26 C18.566875 24.6078125 18.566875 24.6078125 18.125 23.1875 C16.36189097 18.19202443 12.69505433 15.55265031 8.6875 12.3125 C7.3571875 11.1678125 7.3571875 11.1678125 6 10 C6 9.34 6 8.68 6 8 C5.01 7.67 4.02 7.34 3 7 C0 2.66666667 0 2.66666667 0 0 Z " fill="#EDE6DF" transform="translate(362,172)"/>
<path d="M0 0 C-2.01307474 1.15940996 -4.03587138 2.30194823 -6.0625 3.4375 C-7.18785156 4.07558594 -8.31320312 4.71367188 -9.47265625 5.37109375 C-15.10627197 7.9726638 -20.67039622 8.12594287 -26.80859375 8.09765625 C-28.04931641 8.09443359 -29.29003906 8.09121094 -30.56835938 8.08789062 C-31.84517578 8.07951172 -33.12199219 8.07113281 -34.4375 8.0625 C-36.39333008 8.05573242 -36.39333008 8.05573242 -38.38867188 8.04882812 C-41.59249552 8.03709251 -44.79622363 8.02067363 -48 8 C-48 7.67 -48 7.34 -48 7 C-47.11030518 6.97812622 -47.11030518 6.97812622 -46.20263672 6.95581055 C-24.814235 6.53282716 -24.814235 6.53282716 -4.76953125 -0.328125 C-3 -1 -3 -1 0 0 Z " fill="#F8F0E9" transform="translate(544,628)"/>
<path d="M0 0 C0.33 0 0.66 0 1 0 C1.061875 1.258125 1.12375 2.51625 1.1875 3.8125 C1.94215097 10.73560234 5.04646078 16.82664521 8.6640625 22.703125 C10 25 10 25 10 27 C13.63 27 17.26 27 21 27 C21 27.33 21 27.66 21 28 C17.04 28 13.08 28 9 28 C8.34 26.35 7.68 24.7 7 23 C6.34 23 5.68 23 5 23 C4.17934931 21.12855305 3.3688416 19.25265664 2.5625 17.375 C1.88380859 15.80878906 1.88380859 15.80878906 1.19140625 14.2109375 C-0.67075969 9.19224766 -1.37793393 5.20552817 0 0 Z " fill="#F3ECE3" transform="translate(380,129)"/>
<path d="M0 0 C0.763125 0.20625 1.52625 0.4125 2.3125 0.625 C3.0407448 5.61867864 3.69737182 10.61609914 4.3125 15.625 C3.6525 15.625 2.9925 15.625 2.3125 15.625 C1.3225 11.335 0.3325 7.045 -0.6875 2.625 C-2.6675 3.285 -4.6475 3.945 -6.6875 4.625 C-5.39900677 0.7595203 -4.17039106 -0.58191503 0 0 Z " fill="#EAE3DA" transform="translate(159.6875,140.375)"/>
<path d="M0 0 C0.66 0.33 1.32 0.66 2 1 C1.27683594 1.68835938 1.27683594 1.68835938 0.5390625 2.390625 C-0.09257812 3.00421875 -0.72421875 3.6178125 -1.375 4.25 C-2.00148437 4.85328125 -2.62796875 5.4565625 -3.2734375 6.078125 C-4.97310161 7.9700588 -5.98459866 9.68201309 -7 12 C-7.66 12 -8.32 12 -9 12 C-9.4021875 13.299375 -9.4021875 13.299375 -9.8125 14.625 C-10.97111987 17.91791964 -12.38209839 20.91127875 -14 24 C-14.96661182 21.41640173 -15.08474541 20.24818298 -14.1796875 17.59765625 C-11.62175894 12.62731004 -9.26155212 8.7288581 -5 5 C-3.6078125 3.6078125 -3.6078125 3.6078125 -2.1875 2.1875 C-1.1046875 1.1046875 -1.1046875 1.1046875 0 0 Z " fill="#EEE4DA" transform="translate(151,145)"/>
<path d="M0 0 C1.485 0.99 1.485 0.99 3 2 C6.18539357 2.45198152 9.34487903 2.78479055 12.55078125 3.03515625 C15.88563259 3.3837699 17.61262962 3.59264623 19.96875 6.0703125 C20.47921875 7.02550781 20.47921875 7.02550781 21 8 C19.88625 7.690625 18.7725 7.38125 17.625 7.0625 C13.48819137 6.00064538 9.4574075 5.64863365 5.19921875 5.44140625 C2.55523969 4.91073195 1.61534891 4.12766021 0 2 C0 1.34 0 0.68 0 0 Z " fill="#EDE2D8" transform="translate(198,153)"/>
<path d="M0 0 C3.24271506 0.5590888 4.93057424 1.4132178 7 4 C7 4.66 7 5.32 7 6 C7.680625 6.103125 8.36125 6.20625 9.0625 6.3125 C12.62915989 7.14725019 15.66222194 8.49472754 19 10 C16.21176345 11.0326802 15.1322726 11.04509293 12.25 10.0625 C11.5075 9.711875 10.765 9.36125 10 9 C9.67 9.99 9.34 10.98 9 12 C8.05598958 10.2421875 7.11197917 8.484375 6.16796875 6.7265625 C4.95236507 4.69497635 4.95236507 4.69497635 2 3 C2 2.34 2 1.68 2 1 C1.34 0.67 0.68 0.34 0 0 Z " fill="#E0D0C2" transform="translate(466,183)"/>
<path d="M0 0 C0.66 0 1.32 0 2 0 C3.0735426 10.22421525 3.0735426 10.22421525 0.44140625 14.578125 C-1.28909434 16.51405725 -3.03925504 18.29935386 -5 20 C-5.66 19.67 -6.32 19.34 -7 19 C-6.57847656 18.55011719 -6.15695312 18.10023438 -5.72265625 17.63671875 C-0.90917976 11.98513106 -0.02696689 7.33499444 0 0 Z " fill="#E1CCB9" transform="translate(502,174)"/>
<path d="M0 0 C1.75570312 0.01353516 1.75570312 0.01353516 3.546875 0.02734375 C4.43890625 0.03894531 5.3309375 0.05054688 6.25 0.0625 C6.25 0.3925 6.25 0.7225 6.25 1.0625 C5.65832031 1.12308594 5.06664062 1.18367188 4.45703125 1.24609375 C-6.84647576 2.40892444 -6.84647576 2.40892444 -15.75 9.0625 C-14.57596494 5.72101561 -13.59565166 3.25146282 -10.75 1.0625 C-7.18478297 -0.15630675 -3.73919813 -0.03739198 0 0 Z " fill="#DFD1C4" transform="translate(195.75,366.9375)"/>
<path d="M0 0 C3.465 1.485 3.465 1.485 7 3 C6.01 3.66 5.02 4.32 4 5 C4.57352893 8.87132028 6.48704352 11.08172796 9 14 C2.32022472 10.7752809 2.32022472 10.7752809 0.8125 7.125 C0 4 0 4 0 0 Z " fill="#E4D7CC" transform="translate(379,188)"/>
<path d="M0 0 C0.66 0.33 1.32 0.66 2 1 C-2.62 5.62 -7.24 10.24 -12 15 C-12 11.25983417 -11.0658409 10.54723807 -8.625 7.8125 C-7.68527344 6.73935547 -7.68527344 6.73935547 -6.7265625 5.64453125 C-5 4 -5 4 -3 4 C-3 3.34 -3 2.68 -3 2 C-2.01 1.34 -1.02 0.68 0 0 Z " fill="#E3CFBE" transform="translate(469,78)"/>
<path d="M0 0 C0.66 0.33 1.32 0.66 2 1 C1.67 1.99 1.34 2.98 1 4 C0.6978212 8.74598472 0.80690465 13.37675552 2 18 C-1.56697219 14.98482462 -2.05148643 11.9095426 -2.859375 7.453125 C-3.04676483 4.18421349 -2.12084053 2.44712369 0 0 Z " fill="#F3EAE1" transform="translate(179,373)"/>
<path d="M0 0 C0.66 0.33 1.32 0.66 2 1 C1.01 2.485 1.01 2.485 0 4 C-0.61094248 9.343158 0.10272033 14.72848197 1 20 C-1 19 -1 19 -2.140625 16.7890625 C-3.0919282 13.70165121 -3.08493792 11.57453859 -2.75 8.375 C-2.66234375 7.43398438 -2.5746875 6.49296875 -2.484375 5.5234375 C-2 3 -2 3 0 0 Z " fill="#F2E8DF" transform="translate(180,293)"/>
<path d="M0 0 C0.33 0 0.66 0 1 0 C1.57446809 13.14893617 1.57446809 13.14893617 -2 18 C-4.1875 19.375 -4.1875 19.375 -6 20 C-4.5 17 -4.5 17 -3 14 C-2.34 14 -1.68 14 -1 14 C-1.01160156 13.07316406 -1.02320313 12.14632812 -1.03515625 11.19140625 C-1.04417969 9.99386719 -1.05320313 8.79632813 -1.0625 7.5625 C-1.07410156 6.36753906 -1.08570313 5.17257813 -1.09765625 3.94140625 C-1 1 -1 1 0 0 Z " fill="#E2CCB9" transform="translate(218,173)"/>
<path d="M0 0 C-2.05585097 1.17993203 -4.11836541 2.34378455 -6.1875 3.5 C-7.33605469 4.1496875 -8.48460937 4.799375 -9.66796875 5.46875 C-12.85137082 6.93169679 -14.57307465 7.36140832 -18 7 C-15.07003848 5.04669232 -12.12812793 3.42639934 -9 1.8125 C-7.4221875 0.98685547 -7.4221875 0.98685547 -5.8125 0.14453125 C-3 -1 -3 -1 0 0 Z " fill="#EEE6DE" transform="translate(544,628)"/>
<path d="M0 0 C3.32923681 4.99385521 5.89286808 10.38098156 8 16 C4.1735215 14.72450717 3.80418485 13.52992688 2 10 C0.57144482 6.31583137 0 3.99667005 0 0 Z " fill="#EFE8DF" transform="translate(354,156)"/>
<path d="M0 0 C4.19394018 2.51636411 6.926633 4.50770483 9 9 C9 9.99 9 10.98 9 12 C2.07692308 6.46153846 2.07692308 6.46153846 0 3 C0 2.01 0 1.02 0 0 Z " fill="#EDE4DC" transform="translate(456,171)"/>
<path d="M0 0 C1.78805747 2.6820862 3.39726174 5.41435077 4.9765625 8.22265625 C5.8739939 9.78117261 6.83828718 11.30079046 7.8125 12.8125 C8.204375 13.534375 8.59625 14.25625 9 15 C8.67 15.66 8.34 16.32 8 17 C7.34 15.68 6.68 14.36 6 13 C5.34 13 4.68 13 4 13 C3.32404685 11.58774074 2.65959941 10.16997095 2 8.75 C1.62875 7.96109375 1.2575 7.1721875 0.875 6.359375 C0 4 0 4 0 0 Z " fill="#EDE6DE" transform="translate(164,156)"/>
<path d="M0 0 C0.99 0.33 1.98 0.66 3 1 C-0.96 4.96 -4.92 8.92 -9 13 C-9 8.07680621 -5.57051933 5.58348568 -2.25 2.1875 C-1.5075 1.465625 -0.765 0.74375 0 0 Z " fill="#E2CEBF" transform="translate(373,78)"/>
<path d="M0 0 C0.33 0 0.66 0 1 0 C1.04898437 0.59167969 1.09796875 1.18335938 1.1484375 1.79296875 C1.57109895 6.26006306 2.26656634 9.83975921 4 14 C4.125 16.8125 4.125 16.8125 4 19 C1.4931838 16.4931838 1.17720646 14.60836312 0.3125 11.1875 C0.04050781 10.14980469 -0.23148437 9.11210937 -0.51171875 8.04296875 C-1.00256812 4.98399548 -0.8157628 2.96193072 0 0 Z " fill="#ECE3D9" transform="translate(380,129)"/>
<path d="M0 0 C1.11435288 2.80276633 1.00643141 3.97978311 0.07421875 6.91015625 C-0.61220703 8.47056641 -0.61220703 8.47056641 -1.3125 10.0625 C-1.76238281 11.10535156 -2.21226562 12.14820312 -2.67578125 13.22265625 C-4 16 -4 16 -6 19 C-6.3718693 13.90229172 -5.23363859 10.68534545 -3 6.125 C-2.1646875 4.39636719 -2.1646875 4.39636719 -1.3125 2.6328125 C-0.879375 1.76398438 -0.44625 0.89515625 0 0 Z " fill="#E0CCBC" transform="translate(387,107)"/>
<path d="M0 0 C2.5 1.375 2.5 1.375 5 3 C5 3.66 5 4.32 5 5 C7.475 5.99 7.475 5.99 10 7 C10 7.66 10 8.32 10 9 C6 9 6 9 4.296875 7.5390625 C3.78640625 6.90742188 3.2759375 6.27578125 2.75 5.625 C2.22921875 4.99851563 1.7084375 4.37203125 1.171875 3.7265625 C0 2 0 2 0 0 Z " fill="#F1E9E0" transform="translate(177,178)"/>
<path d="M0 0 C0.66 0.33 1.32 0.66 2 1 C-0.64 3.97 -3.28 6.94 -6 10 C-6.33 9.34 -6.66 8.68 -7 8 C-4.69 5.36 -2.38 2.72 0 0 Z " fill="#E5D1C1" transform="translate(182,80)"/>
<path d="M0 0 C0.66 0.33 1.32 0.66 2 1 C-1.17320782 4.53586014 -3.16743695 6.58578031 -8 7 C-5.42215154 4.35247996 -3.08351902 2.05567935 0 0 Z " fill="#D8C6B6" transform="translate(522,469)"/>
<path d="M0 0 C2.475 0.99 2.475 0.99 5 2 C5.33 4.31 5.66 6.62 6 9 C0.42857143 3.85714286 0.42857143 3.85714286 0 0 Z " fill="#DDD3C9" transform="translate(187,187)"/>
<path d="M0 0 C0 2.31 0 4.62 0 7 C-0.99 5.68 -1.98 4.36 -3 3 C-4.65 3.66 -6.3 4.32 -8 5 C-6.44843568 0.34530705 -4.78780941 0 0 0 Z " fill="#F3EAE0" transform="translate(161,140)"/>
<path d="M0 0 C1.51588353 4.5476506 -0.16298192 8.18646083 -2.125 12.4375 C-2.41375 12.953125 -2.7025 13.46875 -3 14 C-4 12 -4 12 -3.22265625 9.1796875 C-2.83980469 8.08914063 -2.45695313 6.99859375 -2.0625 5.875 C-1.68222656 4.77929688 -1.30195312 3.68359375 -0.91015625 2.5546875 C-0.60980469 1.71164062 -0.30945313 0.86859375 0 0 Z " fill="#E1CEBC" transform="translate(603,585)"/>
<path d="M0 0 C3.3566285 2.23775234 3.57996014 2.93320048 4.6875 6.625 C4.93886719 7.44226563 5.19023437 8.25953125 5.44921875 9.1015625 C5.72185547 10.04128906 5.72185547 10.04128906 6 11 C3.66475218 8.74259377 1.81294927 6.7194239 0 4 C0 2.68 0 1.36 0 0 Z " fill="#EFE6DE" transform="translate(192,142)"/>
<path d="M0 0 C2.18557497 2.18557497 2.55919497 3.0177635 3 6 C2.56288458 8.75332474 1.76235947 11.30931953 1 14 C0.67 14 0.34 14 0 14 C0 9.38 0 4.76 0 0 Z " fill="#E4DCD3" transform="translate(255,129)"/>
<path d="M0 0 C0.556875 0.226875 1.11375 0.45375 1.6875 0.6875 C0.5428125 1.3371875 0.5428125 1.3371875 -0.625 2 C-3.27536253 3.52502358 -3.27536253 3.52502358 -5 5.375 C-5.433125 5.808125 -5.86625 6.24125 -6.3125 6.6875 C-6.9725 6.6875 -7.6325 6.6875 -8.3125 6.6875 C-8.125 4.875 -8.125 4.875 -7.3125 2.6875 C-3.3125 -0.44763514 -3.3125 -0.44763514 0 0 Z " fill="#DCCFC2" transform="translate(189.3125,447.3125)"/>
<path d="M0 0 C3.53790403 3.69172595 3.59115883 7.09390595 4 12 C0.46209597 8.30827405 0.40884117 4.90609405 0 0 Z " fill="#F2E9E0" transform="translate(446,149)"/>
<path d="M0 0 C0.33 0.99 0.66 1.98 1 3 C-2.32307692 6.93846154 -2.32307692 6.93846154 -5.75 7.25 C-6.4925 7.1675 -7.235 7.085 -8 7 C-7.13375 6.38125 -7.13375 6.38125 -6.25 5.75 C-3.97483401 3.98042645 -2.00004601 2.07147622 0 0 Z " fill="#F3ECE5" transform="translate(506,196)"/>
<path d="M0 0 C0.33 0.99 0.66 1.98 1 3 C-1.64 4.65 -4.28 6.3 -7 8 C-6.67 7.01 -6.34 6.02 -6 5 C-5.34 5 -4.68 5 -4 5 C-4 4.34 -4 3.68 -4 3 C-2 1.375 -2 1.375 0 0 Z " fill="#E0CDBC" transform="translate(396,99)"/>
<path d="M0 0 C3.14027363 0.33645789 4.05098295 1.05236086 6.3125 3.375 C6.869375 4.24125 7.42625 5.1075 8 6 C7.67 6.99 7.34 7.98 7 9 C6.731875 8.38125 6.46375 7.7625 6.1875 7.125 C5.04443152 4.7004767 5.04443152 4.7004767 2 3 C2 2.34 2 1.68 2 1 C1.34 0.67 0.68 0.34 0 0 Z " fill="#EEE5DD" transform="translate(466,183)"/>
</svg>
